<svg id="SvgjsSvg1041" width="288" height="288" xmlns="http://www.w3.org/2000/svg" version="1.1" xmlns:xlink="http://www.w3.org/1999/xlink" xmlns:svgjs="http://svgjs.com/svgjs"><defs id="SvgjsDefs1042"></defs><g id="SvgjsG1043"><svg xmlns="http://www.w3.org/2000/svg" viewBox="0 0 682.48 160" width="288" height="288"><path d="M539.88,36.28c17.18,0,31.61,6.37,40.74,19.74H581V39.47h22.07V157H581V138.78h-.42c-8.28,14-23.14,21.22-39.9,21.22-34.37,0-62.38-25.89-62.38-59.84,0-37.56,27-63.88,61.54-63.88ZM189,36.28c32.46,0,63,25.47,62.6,62.82-.43,32-27.77,62.05-66.51,60.86-32.85-1-60.77-29.23-60.39-62.09.42-35.45,28.5-61.59,64.3-61.59Zm177.83,0c19.53,0,35.44,13.59,36.08,34.38H380.84c-1.06-8.48-5.94-14.21-15.07-14.21C357.28,56.45,352,62.18,352,69c0,10,10.2,13,21.86,16.56,16.55,5.09,31.83,15.06,31.83,36.92,0,22.7-16.56,37.56-39.47,37.56-21.22,0-41.6-14.43-41.6-41.6h22.08c1.06,14.23,8.27,21.44,19.94,21.44,10.19,0,17-6.58,17-16.13,0-8.06-6.15-13.36-20-17.82-28.86-9.13-33.74-21.65-33.74-35,0-20.8,17.61-34.59,36.92-34.59ZM0,0A22.07,22.07,0,0,1,22.07,22.07V52h.43c7-10.4,18.25-15.7,32.89-15.7,28,0,49,17.82,49,50.08V157H82.34V93.16c0-25.25-9.76-36.71-29.28-36.71-19.32,0-31,14-31,36.92V157H0ZM298.71,0V39.47H318V59.63H298.7V157A22.08,22.08,0,0,1,276.63,135V59.63h-9.11V39.47h9.11V0h22.08ZM452,0V39.47h19.32V59.63H452V157A22.07,22.07,0,0,1,430,135V59.63h-9.12V39.47H430V0H452ZM682.48,36.29V59c-19.1.64-28.86,12.3-28.86,32.05V135A22.07,22.07,0,0,1,631.55,157V39.47h20.59v10.6h.42c5.3-7.84,14.43-12.93,29.92-13.78ZM187.94,56.45c-25.31,0-46.72,24.55-39.89,51.91,4.64,18.55,21.55,32,40.67,31.47a41.69,41.69,0,0,0-.78-83.38Zm352.57,0c-23.3,0-42.1,21-39.94,45.9,1.79,20.5,18.54,37.07,39.1,37.48,23.32.47,41.8-18.82,41.8-41.37C581.47,75.54,564.91,56.45,540.51,56.45Z" fill="#ffffff" class="svgShape color000000-0 selectable"></path></svg></g></svg>